<svg width="24" height="19" viewBox="0 0 24 19" fill="none" xmlns="http://www.w3.org/2000/svg">
<path d="M8.4 9.5C11.0513 9.5 13.2 7.37326 13.2 4.75C13.2 2.12674 11.0513 0 8.4 0C5.74875 0 3.6 2.12674 3.6 4.75C3.6 7.37326 5.74875 9.5 8.4 9.5ZM10.3013 11.2812H6.49875C2.91038 11.2812 0 14.1609 0 17.7123C0 18.4248 0.582 19 1.29975 19H15.501C16.2188 19 16.8 18.4248 16.8 17.7123C16.8 14.1609 13.89 11.2812 10.3013 11.2812ZM23.1 7.42188H21.3V5.64062C21.3 5.15078 20.8988 4.75 20.4 4.75C19.9013 4.75 19.5 5.14893 19.5 5.64062V7.42188H17.7C17.205 7.42188 16.8 7.82266 16.8 8.3125C16.8 8.80234 17.2031 9.20312 17.7 9.20312H19.5V10.9844C19.5 11.4779 19.905 11.875 20.4 11.875C20.895 11.875 21.3 11.4761 21.3 10.9844V9.20312H23.1C23.5988 9.20312 24 8.80606 24 8.3125C24 7.81895 23.5988 7.42188 23.1 7.42188Z" fill="white"/>
</svg>
