<svg width="10" height="10" viewBox="0 0 10 10" fill="none" xmlns="http://www.w3.org/2000/svg">
    <path
        d="M5 0C2.23828 0 0 2.23828 0 5C0 7.76172 2.23828 10 5 10C7.76172 10 10 7.76172 10 5C10 2.23828 7.76172 0 5 0ZM4.53125 2.96875C4.53125 2.71094 4.74219 2.5 5 2.5C5.25781 2.5 5.46875 2.70996 5.46875 2.96875V5.46875C5.46875 5.72754 5.25879 5.9375 5 5.9375C4.74121 5.9375 4.53125 5.72852 4.53125 5.46875V2.96875ZM5 7.8125C4.66094 7.8125 4.38594 7.5375 4.38594 7.19844C4.38594 6.85938 4.66074 6.58437 5 6.58437C5.33926 6.58437 5.61406 6.85938 5.61406 7.19844C5.61328 7.53711 5.33984 7.8125 5 7.8125Z"
        fill="#FF3D3D" />
</svg>