<svg width="16" height="15" viewBox="0 0 16 15" fill="none" xmlns="http://www.w3.org/2000/svg">
<path d="M8 0.97168C3.58125 0.97168 0.0281251 3.88168 0.0281251 7.47168C0.0281251 9.0223 0.695312 10.4398 1.80844 11.556C1.41781 13.1301 0.1125 14.5332 0.0968751 14.5489C0.0265626 14.6192 0.00703138 14.728 0.0500001 14.8218C0.0890314 14.9155 0.175656 14.9707 0.277219 14.9707C2.34753 14.9707 3.87409 13.9782 4.67097 13.3648C5.69065 13.7476 6.82784 13.9707 8.02722 13.9707C12.446 13.9707 15.9991 11.0604 15.9991 7.49886C15.9991 3.9373 12.4187 0.97168 8 0.97168ZM3.97187 8.47168C3.41719 8.47168 2.97187 8.02636 2.97187 7.4998C2.97187 6.97324 3.41719 6.4998 3.97187 6.4998C4.52656 6.4998 4.97187 6.94511 4.97187 7.4998C4.97187 8.05449 4.55312 8.47168 3.97187 8.47168ZM8 8.47168C7.44531 8.47168 7.02812 8.02636 7.02812 7.4998C7.02812 6.97324 7.47344 6.4998 8 6.4998C8.52656 6.4998 8.97187 6.94511 8.97187 7.4998C8.97187 8.05449 8.55625 8.47168 8 8.47168ZM11.9719 8.47168C11.4172 8.47168 10.9719 8.02636 10.9719 7.4998C10.9719 6.97324 11.4172 6.4998 11.9719 6.4998C12.5266 6.4998 12.9719 6.94511 12.9719 7.4998C12.9719 8.05449 12.5531 8.47168 11.9719 8.47168Z" fill="white"/>
</svg>
