<svg width="16" height="17" viewBox="0 0 16 17" fill="none" xmlns="http://www.w3.org/2000/svg">
    <path
        d="M15.9874 1.65166L13.9874 14.6235C13.9406 14.9277 13.757 15.1929 13.4884 15.3439C13.337 15.4288 13.1674 15.4719 12.9984 15.4719C12.8675 15.4719 12.7384 15.4464 12.6143 15.3946L8.78307 13.7978L7.1937 16.1818C7.07183 16.3904 6.8687 16.4998 6.64995 16.4998C6.29058 16.4998 5.99995 16.2092 5.99995 15.8498V12.8442C5.99995 12.6218 6.07408 12.4057 6.21064 12.2304L12.9999 3.49978L3.82183 11.7592L0.615264 10.4217C0.263639 10.2748 0.0253421 9.94354 0.00190459 9.53416C-0.0215329 9.12479 0.172811 8.79291 0.503779 8.60385L14.5038 0.63197C14.8378 0.441063 15.25 0.458626 15.5663 0.675907C15.8825 0.893189 16.0468 1.27228 15.9874 1.65166Z"
        fill="#9a9a9a" />
</svg>